<svg width="60" height="60" viewBox="0 0 60 60" fill="none" xmlns="http://www.w3.org/2000/svg">
<rect width="60" height="60" rx="30" fill="#FEEBEB"/>
<path d="M40.6875 33.4875L32.6625 20.575C32.025 19.7125 31.05 19.225 30 19.225C28.9125 19.225 27.9375 19.7125 27.3375 20.575L19.3125 33.4875C18.5625 34.5 18.45 35.8125 19.0125 36.9375C19.575 38.0625 20.7 38.775 21.975 38.775H38.025C39.3 38.775 40.425 38.0625 40.9875 36.9375C41.55 35.85 41.4375 34.5 40.6875 33.4875ZM39.4875 36.1875C39.1875 36.75 38.6625 37.0875 38.025 37.0875H21.975C21.3375 37.0875 20.8125 36.75 20.5125 36.1875C20.25 35.625 20.2875 34.9875 20.6625 34.5L28.6875 21.5875C28.9875 21.175 29.475 20.9125 30 20.9125C30.525 20.9125 31.0125 21.1375 31.3125 21.5875L39.3375 34.5C39.7125 34.9875 39.75 35.625 39.4875 36.1875Z" fill="#E10E0E"/>
<path d="M30.0002 26.2C29.5502 26.2 29.1377 26.575 29.1377 27.0625V31.15C29.1377 31.6 29.5127 32.0125 30.0002 32.0125C30.4877 32.0125 30.8627 31.6375 30.8627 31.15V27.025C30.8627 26.575 30.4502 26.2 30.0002 26.2Z" fill="#E10E0E"/>
<path d="M30.0002 33C29.5502 33 29.1377 33.375 29.1377 33.8625V34.05C29.1377 34.5 29.5127 34.9125 30.0002 34.9125C30.4877 34.9125 30.8627 34.5375 30.8627 34.05V33.825C30.8627 33.375 30.4502 33 30.0002 33Z" fill="#E10E0E"/>
</svg>
