<svg width="42" height="41" viewBox="0 0 42 41" fill="none" xmlns="http://www.w3.org/2000/svg">
<g id="Group">
<path id="Vector" d="M40.4561 7.53809L14.8691 28.8408C14.471 29.173 13.9573 29.3467 13.4319 29.3268C12.9064 29.307 12.4083 29.095 12.0383 28.7337C11.6683 28.3724 11.4539 27.8888 11.4385 27.3805C11.423 26.8723 11.6077 26.3773 11.9551 25.9956L34.2316 1.45948C34.6158 1.03623 35.0825 0.690295 35.6049 0.441432C36.1274 0.19257 36.6955 0.0456492 37.2767 0.00906054C37.8579 -0.0275281 38.4408 0.0469328 38.9923 0.228189C39.5437 0.409445 40.0528 0.693949 40.4906 1.06545C40.9283 1.43696 41.286 1.88819 41.5434 2.39339C41.8008 2.89859 41.9528 3.44786 41.9906 4.00984C42.0284 4.57181 41.9514 5.13549 41.764 5.66869C41.5765 6.20189 41.2823 6.69417 40.8981 7.11742C40.7603 7.26676 40.6127 7.40728 40.4561 7.53809Z" fill="white"/>
<path id="Vector_2" d="M29.6206 7.71348L10.045 5.86911C9.78599 5.84473 9.52477 5.88169 9.28387 5.97679C9.04298 6.0719 8.82966 6.22229 8.66234 6.41497L6.71134 8.65057C6.53855 8.84946 6.42023 9.08715 6.36727 9.3418C6.31431 9.59645 6.3284 9.85989 6.40824 10.1079C6.48809 10.3559 6.63113 10.5805 6.82421 10.7611C7.01729 10.9417 7.25424 11.0725 7.51324 11.1414L24.1987 15.5813C24.5486 15.6745 24.9208 15.6501 25.2544 15.5121C25.5881 15.374 25.8634 15.1306 26.0353 14.8216L29.6206 7.71348Z" fill="white"/>
<path id="Vector_3" d="M13.4545 23.3076L2.91914 22.315C2.76029 22.3001 2.60008 22.3229 2.45237 22.3813C2.30466 22.4397 2.17389 22.532 2.07137 22.6503L0.230181 24.7697C0.124234 24.8917 0.0517076 25.0375 0.0192564 25.1937C-0.0131948 25.3498 -0.00452583 25.5114 0.0444695 25.6635C0.0934648 25.8156 0.181221 25.9534 0.299658 26.0641C0.418095 26.1749 0.563401 26.2551 0.722259 26.2973L10.9551 29.0203C11.1697 29.0773 11.398 29.0622 11.6026 28.9776C11.8072 28.8929 11.976 28.7436 12.0815 28.5542L14.2248 24.7045C14.3017 24.5665 14.3421 24.4124 14.3424 24.2557C14.3428 24.099 14.303 23.9447 14.2268 23.8064C14.1506 23.6682 14.0402 23.5503 13.9054 23.4632C13.7707 23.3762 13.6158 23.3227 13.4545 23.3076Z" fill="white"/>
<path id="Vector_4" d="M34.1499 11.6453L35.7683 30.5998C35.7897 30.8506 35.7477 31.1025 35.6458 31.334C35.544 31.5655 35.3854 31.7696 35.1838 31.9285L32.6879 34.1422C32.4796 34.3062 32.232 34.417 31.9679 34.4644C31.7038 34.5118 31.4316 34.4943 31.1763 34.4134C30.921 34.3325 30.6908 34.1909 30.5069 34.0016C30.323 33.8123 30.1913 33.5813 30.1238 33.3299L25.7775 17.1322C25.6863 16.7926 25.7171 16.4331 25.8647 16.1126C26.0123 15.7921 26.2681 15.5296 26.5902 15.3679L34.1499 11.6453Z" fill="white"/>
<path id="Vector_5" d="M17.6301 27.4064L18.5018 37.6067C18.5149 37.7605 18.4891 37.915 18.4266 38.057C18.3641 38.199 18.2667 38.3241 18.143 38.4216L15.9242 40.1706C15.7965 40.2711 15.6447 40.3391 15.4827 40.3681C15.3208 40.3972 15.1539 40.3864 14.9973 40.3368C14.8408 40.2872 14.6997 40.2004 14.5869 40.0843C14.4742 39.9682 14.3934 39.8266 14.352 39.6724L11.6865 29.7389C11.631 29.5308 11.6501 29.3107 11.7406 29.1145C11.8311 28.9183 11.9877 28.7575 12.1848 28.6583L16.1974 26.6429C16.341 26.5708 16.5008 26.534 16.6626 26.536C16.8245 26.5379 16.9833 26.5784 17.125 26.6539C17.2668 26.7295 17.3871 26.8377 17.4752 26.9689C17.5633 27.1002 17.6165 27.2505 17.6301 27.4064Z" fill="white"/>
</g>
</svg>
